<?xml version="1.0" standalone="no"?>
<!DOCTYPE svg PUBLIC "-//W3C//DTD SVG 20010904//EN"
 "http://www.w3.org/TR/2001/REC-SVG-20010904/DTD/svg10.dtd">
<svg version="1.0" xmlns="http://www.w3.org/2000/svg"
 width="996.000000pt" height="996.000000pt" viewBox="0 0 996.000000 996.000000"
 preserveAspectRatio="xMidYMid meet">
<metadata>
Created by potrace 1.14, written by Peter Selinger 2001-2017
</metadata>
<g transform="translate(0.000000,996.000000) scale(0.100000,-0.100000)"
fill="#000000" stroke="none">
<path d="M3865 9548 c-2 -7 -7 -42 -10 -78 -4 -58 -10 -95 -15 -110 -1 -3 -2
-8 -1 -12 0 -3 -9 -33 -20 -65 -11 -32 -21 -62 -23 -68 -10 -40 -110 -206
-128 -213 -4 -2 -8 -8 -8 -13 0 -20 -123 -143 -200 -201 -45 -34 -84 -59 -151
-96 -44 -24 -173 -68 -225 -77 -22 -3 -55 -8 -74 -12 -19 -3 -51 -6 -70 -7
-44 -1 -57 -34 -13 -33 45 0 145 -13 188 -24 22 -6 45 -12 52 -13 7 -1 16 -5
19 -9 4 -4 13 -7 21 -7 17 0 147 -62 151 -72 2 -5 8 -8 14 -8 13 0 93 -56 142
-100 92 -83 216 -230 216 -257 0 -7 3 -13 8 -13 4 0 13 -15 21 -32 8 -18 22
-51 32 -73 32 -72 59 -182 65 -262 3 -43 8 -82 11 -86 12 -20 26 3 29 48 2 51
5 66 25 164 10 54 75 221 89 231 4 3 14 19 23 36 21 41 99 137 162 199 176
173 426 283 633 277 24 -1 32 3 32 17 0 11 -8 17 -22 18 -121 3 -261 35 -353
78 -28 14 -55 25 -59 25 -4 0 -12 5 -19 10 -7 6 -36 26 -66 46 -94 63 -208
173 -264 254 -17 25 -34 47 -37 50 -4 3 -25 43 -47 90 -37 77 -47 100 -52 122
-1 4 -8 29 -16 55 -15 51 -26 124 -29 187 -2 39 -22 61 -31 34z"/>
<path d="M2079 7558 c0 -1 -2 -23 -5 -48 -2 -25 -6 -58 -10 -75 -3 -16 -8 -43
-10 -60 -8 -47 -66 -174 -109 -240 -39 -58 -198 -225 -215 -225 -5 0 -15 -7
-23 -15 -26 -25 -186 -99 -240 -109 -48 -10 -118 -20 -147 -21 -23 0 -36 -6
-38 -16 -2 -12 5 -15 28 -14 29 2 79 -5 155 -20 36 -8 155 -54 173 -68 7 -5
25 -17 42 -26 108 -59 252 -215 314 -338 36 -72 77 -218 78 -281 2 -49 11 -72
24 -59 3 3 8 32 10 64 7 84 17 129 41 193 3 8 7 20 9 27 8 39 99 176 162 244
135 145 301 237 462 256 25 2 54 6 65 8 11 2 28 4 38 4 36 2 10 24 -31 27 -44
3 -108 11 -132 17 -52 11 -154 52 -194 77 -26 17 -49 30 -51 30 -17 0 -188
167 -227 220 -75 104 -134 259 -141 376 -3 38 -9 70 -16 72 -6 2 -11 2 -12 0z"/>
<path d="M3330 7260 c-4 -3 -7 -67 -7 -144 l2 -138 105 -37 c263 -93 329 -183
356 -486 9 -103 9 -4215 0 -4355 -21 -318 -95 -429 -341 -511 -38 -13 -72 -24
-75 -24 -49 -9 -48 -7 -48 -160 l1 -145 1183 0 1184 0 0 144 0 143 -107 26
c-300 74 -394 190 -418 516 -6 72 -11 1546 -6 1657 1 21 5 21 74 16 112 -8
860 -8 971 0 318 25 653 104 890 212 539 246 880 700 980 1306 21 127 29 462
14 600 -8 74 -35 220 -48 265 -106 345 -265 568 -532 748 -95 63 -199 117
-343 177 -97 40 -335 106 -445 124 -19 3 -46 8 -60 11 -13 2 -42 7 -65 10 -22
3 -51 8 -65 10 -38 7 -139 17 -315 31 -103 8 -2872 12 -2885 4z m2562 -525
c434 -62 666 -251 782 -635 14 -47 28 -101 31 -120 7 -45 17 -100 21 -125 7
-36 18 -238 18 -335 0 -104 -11 -318 -18 -328 -2 -4 -6 -30 -10 -59 -34 -284
-175 -543 -369 -675 -100 -68 -238 -127 -336 -143 -19 -3 -38 -8 -41 -10 -9
-6 -117 -21 -215 -31 -38 -4 -188 -8 -332 -8 l-263 -2 -1 26 c0 14 -1 569 -1
1235 l-1 1210 24 6 c51 12 613 8 711 -6z"/>
<path d="M7023 3408 c3 -104 -36 -265 -93 -380 -74 -150 -216 -307 -362 -402
-88 -57 -173 -98 -182 -88 -3 3 -6 0 -6 -7 0 -7 -4 -9 -10 -6 -5 3 -10 1 -10
-5 0 -6 -4 -9 -8 -6 -5 3 -29 -1 -55 -9 -25 -7 -76 -17 -114 -21 -37 -3 -75
-8 -83 -9 -8 -2 -18 -4 -22 -4 -5 -1 -8 -7 -8 -14 0 -9 12 -13 38 -12 20 0 41
-1 47 -4 5 -3 21 -6 35 -7 34 -2 87 -13 135 -26 22 -6 42 -12 45 -13 3 0 15
-6 28 -13 12 -7 22 -11 22 -8 0 8 104 -49 166 -90 70 -46 208 -181 262 -254
40 -54 116 -190 106 -190 -2 0 2 -13 10 -29 9 -16 20 -48 26 -72 6 -24 13 -53
15 -64 7 -28 18 -124 18 -157 1 -20 6 -28 18 -28 11 0 17 8 16 23 -2 44 14
171 24 189 5 10 8 18 5 18 -2 0 9 35 24 78 41 115 118 242 186 309 12 12 24
26 25 30 4 8 61 59 123 111 64 54 196 125 271 148 70 21 134 35 177 40 29 3
64 7 78 9 39 4 40 4 40 18 0 8 -12 14 -27 14 -96 1 -198 21 -298 59 -11 4 -23
6 -27 6 -5 -1 -8 3 -8 10 0 6 -3 9 -6 5 -8 -7 -73 26 -149 77 -59 39 -220 194
-260 250 -46 63 -99 166 -126 239 -15 42 -25 77 -23 77 3 0 0 8 -5 18 -9 17
-24 128 -24 185 -1 19 -6 27 -18 27 -11 0 -17 -8 -16 -22z m47 -455 c0 -9 8
-22 18 -30 11 -10 12 -12 2 -8 -8 4 -1 -6 15 -20 17 -15 24 -24 18 -21 -7 4
-13 3 -13 -2 0 -6 7 -13 16 -16 8 -3 12 -10 9 -16 -3 -5 1 -10 9 -10 8 0 18
-5 22 -12 4 -7 3 -8 -4 -4 -7 4 -12 3 -12 -2 0 -10 29 -26 42 -24 4 1 5 -8 3
-21 -4 -22 -4 -22 12 -2 13 16 15 17 10 3 -4 -10 -2 -18 4 -18 6 0 7 -5 3 -12
-5 -8 -2 -9 10 -5 9 4 15 3 12 -2 -7 -10 38 -53 47 -45 4 4 10 -1 14 -11 6
-18 20 -36 66 -83 12 -13 30 -21 40 -18 10 2 17 -2 17 -10 0 -8 4 -14 9 -14 4
0 20 -12 35 -27 21 -21 25 -23 21 -7 -5 15 -4 15 7 -3 7 -12 18 -23 23 -25 6
-2 9 -7 7 -13 -1 -5 5 -1 14 10 15 19 15 19 8 -10 -4 -16 -7 -35 -7 -41 0 -7
-6 -10 -14 -7 -7 3 -13 -1 -13 -9 0 -8 -7 -15 -15 -15 -11 0 -12 4 -4 16 6 9
-3 0 -20 -19 -18 -19 -39 -34 -48 -32 -11 3 -14 -1 -9 -14 6 -14 4 -15 -9 -4
-13 11 -16 11 -13 -1 2 -9 -5 -14 -19 -13 -18 0 -20 -3 -12 -19 10 -17 9 -17
-13 -6 -21 11 -22 11 -9 -4 12 -15 11 -17 -3 -17 -10 0 -14 -4 -11 -10 3 -5 2
-10 -4 -10 -5 0 -12 6 -15 13 -4 6 -4 2 -2 -10 2 -13 -2 -24 -11 -27 -9 -4
-11 -2 -7 6 4 7 3 8 -5 4 -9 -6 -9 -11 -1 -21 8 -9 5 -12 -13 -10 -18 2 -23
-2 -23 -19 1 -13 -5 -21 -16 -21 -10 0 -23 -6 -30 -14 -10 -10 -10 -12 0 -7 6
4 12 3 12 -3 0 -10 -39 -27 -53 -23 -5 1 -6 -2 -2 -8 3 -6 11 -7 17 -4 7 5 8
2 4 -5 -5 -7 -14 -10 -22 -7 -8 3 -13 2 -13 -2 3 -18 -2 -33 -9 -28 -4 2 -14
-5 -22 -17 -12 -19 -11 -20 2 -10 12 10 15 10 15 -2 0 -7 -3 -14 -6 -13 -22 2
-31 -5 -31 -22 0 -11 -5 -20 -11 -20 -5 0 -7 5 -3 12 4 7 3 8 -5 4 -9 -6 -9
-11 1 -24 11 -14 10 -15 -6 -9 -17 7 -17 6 -5 -10 9 -11 10 -14 2 -9 -7 4 -13
2 -13 -4 0 -7 -7 -7 -22 1 -22 12 -22 11 -8 -7 14 -18 14 -18 -3 -5 -10 8 -15
21 -12 29 4 11 2 12 -8 4 -10 -8 -13 -6 -14 8 -1 11 -14 32 -30 46 -15 14 -22
23 -15 19 20 -10 14 2 -19 34 -18 18 -27 36 -23 43 5 7 2 9 -8 5 -20 -7 -38
11 -31 31 4 10 2 13 -5 8 -7 -4 -12 -2 -12 4 0 6 -4 8 -10 5 -5 -3 -10 1 -10
9 0 15 -12 21 -34 17 -5 -1 -3 6 5 15 12 16 12 17 -3 11 -11 -4 -17 -2 -15 6
1 7 -4 11 -11 9 -8 -1 -11 2 -7 8 3 5 -2 10 -12 10 -15 0 -16 2 -3 11 12 9 10
10 -9 5 -18 -4 -21 -2 -12 7 6 6 11 16 11 21 0 6 -4 5 -9 -3 -8 -12 -12 -12
-25 -2 -9 8 -16 20 -16 27 0 8 -3 13 -7 13 -22 -4 -33 3 -33 17 0 12 -6 15
-21 11 -16 -4 -18 -3 -9 8 10 12 8 13 -9 10 -12 -2 -19 0 -16 5 3 5 1 11 -5
15 -5 3 -10 0 -10 -7 0 -9 -3 -9 -8 -2 -7 11 -42 28 -54 26 -3 -1 -8 4 -11 11
-6 15 22 52 41 53 29 2 33 5 26 17 -5 8 -2 7 9 -2 15 -12 17 -12 11 3 -4 11
-1 16 10 16 9 0 16 5 16 10 0 6 6 9 13 8 6 -2 12 4 11 13 -1 9 7 15 20 15 13
-1 20 4 18 13 -3 12 -1 12 14 0 12 -9 15 -9 10 -1 -6 11 4 17 26 13 4 0 5 6 1
15 -5 13 -8 13 -15 2 -8 -10 -9 -10 -5 2 2 8 14 14 26 14 15 -1 20 3 17 12 -3
7 -1 16 4 19 6 4 10 1 10 -4 0 -6 4 -11 9 -11 6 0 8 9 6 21 -3 15 4 24 29 34
18 8 39 22 47 31 12 15 11 15 -16 -1 l-30 -19 25 25 c14 14 28 24 33 22 4 -2
7 1 7 7 0 6 5 8 11 5 6 -4 9 0 7 11 -2 11 9 26 29 39 25 18 29 25 20 35 -7 8
-8 10 -1 7 6 -4 16 5 22 18 7 14 17 25 23 25 8 0 8 5 -1 16 -8 8 -9 14 -4 12
5 -2 9 1 9 6 0 11 57 36 68 29 4 -2 7 -11 7 -20z m310 -348 l25 -30 -27 24
c-16 14 -28 29 -28 34 0 6 1 8 3 6 1 -2 13 -17 27 -34z"/>
<path d="M6911 2806 c-8 -10 -9 -16 -1 -21 6 -4 9 -1 8 7 -2 7 3 12 10 10 8
-1 11 2 7 8 -8 13 -10 13 -24 -4z"/>
<path d="M7291 2664 c0 -11 3 -14 6 -6 3 7 2 16 -1 19 -3 4 -6 -2 -5 -13z"/>
<path d="M7440 2379 c0 -5 5 -7 10 -4 6 3 10 8 10 11 0 2 -4 4 -10 4 -5 0 -10
-5 -10 -11z"/>
<path d="M6705 2331 c-3 -5 -2 -12 3 -15 5 -3 9 1 9 9 0 17 -3 19 -12 6z"/>
<path d="M6875 2161 c-3 -5 -2 -12 3 -15 5 -3 9 1 9 9 0 17 -3 19 -12 6z"/>
<path d="M6920 2106 c0 -2 8 -10 18 -17 15 -13 16 -12 3 4 -13 16 -21 21 -21
13z"/>
<path d="M6965 2040 c3 -5 8 -10 11 -10 2 0 4 5 4 10 0 6 -5 10 -11 10 -5 0
-7 -4 -4 -10z"/>
</g>
</svg>
